<svg xmlns="http://www.w3.org/2000/svg" xmlns:xlink="http://www.w3.org/1999/xlink" width="400" height="400" viewBox="0 0 400 400"><defs><linearGradient id="gradient-19"><stop stop-color="#905e25" offset="0"/><stop stop-color="#f5ec8b" offset="0.5"/><stop stop-color="#905e36" offset="1"/></linearGradient></defs>
<rect data-name="background" width="100%" height="100%" fill="#000000"/><g data-name="icon" fill="#FFFFFF" data="id:6133690" transform="translate(10.121364543220265, 129.4964211618772) scale(1.4842857808746759)">
  <title>Untitled-1</title><path class="cls-1" d="M42.405,86.625H24.164v3.967H42.405V86.625Zm-1.94-2.213L39.1,71.033l-3.4-9.308L27.129,49.692h0l-.014-.021a2.293,2.293,0,0,0-4.132,1.806l6.008,10.663h0a1.1,1.1,0,0,1-1.325,1.581l-6.814-2.394a1.1,1.1,0,0,1-.493-.346l-4.012-4.924a1.127,1.127,0,0,1-.151-.212l-9.012-16.3c-1.559-1.824-2.773-2.738-3.652-3a.889.889,0,0,0-.6-.032.624.624,0,0,0-.265.34,4.076,4.076,0,0,0,0,2.331L9.543,58.6,16.482,69.06l8.38,5.485A4.308,4.308,0,0,1,26.836,78.4l-.272,6.01Zm14.07,0h13.9l-.272-6.01a4.308,4.308,0,0,1,1.974-3.857l8.38-5.485L85.457,58.6l6.879-19.415a4.076,4.076,0,0,0,0-2.331.62.62,0,0,0-.265-.34.889.889,0,0,0-.6.032c-.879.266-2.093,1.18-3.652,3l-9.011,16.3a1.131,1.131,0,0,1-.152.212l-4.012,4.924a1.1,1.1,0,0,1-.493.346l-6.814,2.394A1.1,1.1,0,0,1,66.01,62.14h0l6.008-10.663a2.294,2.294,0,0,0-4.132-1.806l-.014.021h0L59.3,61.725l-3.4,9.308L54.535,84.412Zm16.3,2.213H52.6v3.967H70.836V86.625ZM34.288,13.492a44.936,44.936,0,0,0,6.78.657V4.408c-2.1.57-4.036,2.731-5.547,5.933a26.322,26.322,0,0,0-1.233,3.151ZM26.34,11.061c.131-.138.263-.274.4-.409a21.816,21.816,0,0,1,9.573-5.6A18.1,18.1,0,0,0,33.524,9.4a28.866,28.866,0,0,0-1.41,3.643,29.152,29.152,0,0,1-5.774-1.981Zm5.774,28.075a28.925,28.925,0,0,0,1.41,3.643,18.1,18.1,0,0,0,2.787,4.344,21.808,21.808,0,0,1-9.573-5.6c-.135-.134-.267-.27-.4-.408a29.088,29.088,0,0,1,5.774-1.981Zm8.954-1.107v9.74c-2.1-.569-4.036-2.73-5.547-5.932a26.388,26.388,0,0,1-1.233-3.151,44.82,44.82,0,0,1,6.78-.657ZM30.259,27.2a45.125,45.125,0,0,0,1.259,9.817,30.586,30.586,0,0,0-6.656,2.377A21.72,21.72,0,0,1,20.372,27.2Zm10.809,0v8.621a46.836,46.836,0,0,0-7.389.74A42.939,42.939,0,0,1,32.472,27.2Zm-8.6-2.212h8.6V16.362a46.955,46.955,0,0,1-7.389-.74,42.939,42.939,0,0,0-1.207,9.361Zm-12.1,0h9.887a45.116,45.116,0,0,1,1.259-9.817,30.586,30.586,0,0,1-6.656-2.377,21.72,21.72,0,0,0-4.49,12.194ZM43.281,37a10.97,10.97,0,0,0,0-21.828V37Zm0-24.05v-6.3h1.848l.8,3.446a1.106,1.106,0,0,0,.771.858,15.808,15.808,0,0,1,1.526.539q.715.3,1.422.677a1.1,1.1,0,0,0,1.139-.017l3.043-1.9L58,14.438l-1.9,3.043a1.1,1.1,0,0,0-.035,1.106,15.192,15.192,0,0,1,1.234,2.98h0a1.1,1.1,0,0,0,.812.761l3.491.806v5.91l-3.446.8a1.1,1.1,0,0,0-.858.771,15.808,15.808,0,0,1-.539,1.526,15.564,15.564,0,0,1-.677,1.421A1.106,1.106,0,0,0,56.1,34.7L58,37.74l-4.178,4.178-3.043-1.9a1.1,1.1,0,0,0-1.106-.035A15.469,15.469,0,0,1,46.7,41.217h0a1.1,1.1,0,0,0-.76.812l-.807,3.49H43.281v-6.3a13.183,13.183,0,0,0,0-26.272Zm23.925,24.52a3.869,3.869,0,0,1,2.137-.314,1.111,1.111,0,0,1,.193.032,3.884,3.884,0,0,1-1.247,7.664,1.034,1.034,0,0,1-.194-.032,3.888,3.888,0,0,1-3.127-4.343A1.111,1.111,0,0,1,65,40.287a3.848,3.848,0,0,1,.541-1.367l-3.216-3.7H59.034a1.582,1.582,0,0,1-.245-2.213h4.036v0a1.1,1.1,0,0,1,.834.381l3.547,4.081Zm2.371-8.364a4.269,4.269,0,1,0-1.106-4.126H63.819V27.2h4.652a4.271,4.271,0,0,0,1.106,1.914Zm-.234-14.09a1.122,1.122,0,0,0,.194-.032A3.882,3.882,0,1,0,64.968,11.7a1.111,1.111,0,0,0,.032.193,3.848,3.848,0,0,0,.541,1.367l-3.216,3.7H59.034q-1.11,1.209-.245,2.213h4.036v0a1.1,1.1,0,0,0,.834-.381L67.206,14.7A3.86,3.86,0,0,0,69.343,15.019Z"/>
  </g><g data-name="business_name" fill="#FFFFFF" data="id:20" transform="translate(165.91283016012213, 61.28923859778085) scale(4.1690583996440385)"><path d="M17.34375,23.828125q-0.625-0.859375-1.376953125-1.318359375t-1.650390625-0.703125t-1.796875-0.244140625q-1.484375,0-2.59765625,0.341796875t-1.845703125,0.927734375t-1.103515625,1.3671875t-0.37109375,1.640625q0,1.2890625,0.458984375,2.080078125t1.162109375,1.26953125t1.552734375,0.751953125t1.630859375,0.546875l3.9453125,1.2890625q1.77734375,0.56640625,3.134765625,1.2890625t2.275390625,1.708984375t1.396484375,2.275390625t0.478515625,2.98828125q0,1.8359375-0.751953125,3.3984375t-2.099609375,2.71484375t-3.212890625,1.806640625t-4.091796875,0.654296875q-2.28515625,0-3.90625-0.517578125t-2.724609375-1.38671875t-1.767578125-1.982421875t-1.03515625-2.28515625l-1.484375,0l0-3.359375l4.921875,0q0,2.16796875,0.458984375,3.06640625t1.279296875,1.494140625t1.953125,0.8984375t2.5,0.302734375q1.328125,0,2.392578125-0.3125t1.81640625-0.908203125t1.15234375-1.4453125t0.400390625-1.923828125q0-1.19140625-0.498046875-2.021484375t-1.279296875-1.416015625t-1.708984375-0.95703125t-1.787109375-0.64453125l-4.27734375-1.2109375q-1.40625-0.4296875-2.568359375-1.09375t-1.9921875-1.62109375t-1.279296875-2.236328125t-0.44921875-2.958984375q0-1.69921875,0.6640625-3.18359375t1.953125-2.59765625t3.154296875-1.748046875t4.267578125-0.634765625q1.58203125,0,2.919921875,0.37109375t2.421875,1.044921875t1.9140625,1.62109375t1.396484375,2.080078125l1.46484375,0l0,3.359375l-4.78515625,0q0-1.71875-0.625-2.578125z M46.03515625,21.73828125l0-3.37890625l6.796875,0l0,3.37890625l-2.32421875,0l-12.96875,10.91796875l12.12890625,11.953125l3.1640625,0l0,3.359375l-7.96875,0l0-3.359375l-11.7578125-11.7578125z M26.46484375,18.359375l9.609375,0l0,3.37890625l-3.0078125,0l0,22.87109375l2.96875,0l0,3.359375l-9.609375,0l0-3.359375l2.8125,0l0-22.87109375l-2.7734375,0l0-3.37890625z"/></g></svg>